<svg data-v-fde0c5aa="" xmlns="http://www.w3.org/2000/svg" viewBox="0 0 300 300" class="iconLeft"><!----><defs data-v-fde0c5aa=""><!----></defs><rect data-v-fde0c5aa="" fill="transparent" x="0" y="0" width="300px" height="300px" class="logo-background-square"></rect><defs data-v-fde0c5aa=""><!----></defs><g data-v-fde0c5aa="" id="9073d66d-5f3f-475b-9ee7-e35d9d6b5739" fill="#000000" transform="matrix(3.481268797475686,0,0,3.481268797475686,126.31926861119335,113.29002192501747)"><path d="M0.28 14.43L0.28 14.43L0.28 14.01L0.28 14.01Q0.28 13.80 0.49 13.80L0.49 13.80L0.49 13.80Q0.99 13.80 1.26 13.43L1.26 13.43L1.26 13.43Q1.50 13.08 1.50 12.53L1.50 12.53L1.50 12.53Q1.50 12.50 1.50 12.47L1.50 12.47L1.50 10.08L1.50 10.08Q1.50 9.86 1.50 9.74L1.50 9.74L1.50 9.74Q1.50 9.63 1.48 9.43L1.48 9.43L1.48 9.43Q1.46 9.24 1.43 9.13L1.43 9.13L1.43 9.13Q1.39 9.02 1.32 8.88L1.32 8.88L1.32 8.88Q1.24 8.74 1.14 8.66L1.14 8.66L1.14 8.66Q1.03 8.59 0.87 8.54L0.87 8.54L0.87 8.54Q0.70 8.48 0.49 8.48L0.49 8.48L0.49 8.48Q0.28 8.48 0.28 8.27L0.28 8.27L0.28 7.85L0.28 7.85Q0.28 7.64 0.49 7.64L0.49 7.64L1.53 7.64L1.52 7.53L1.52 7.53Q1.52 6.99 1.61 6.46L1.61 6.46L1.61 6.46Q1.70 5.93 1.93 5.37L1.93 5.37L1.93 5.37Q2.17 4.82 2.51 4.40L2.51 4.40L2.51 4.40Q2.86 3.98 3.42 3.71L3.42 3.71L3.42 3.71Q3.99 3.44 4.69 3.44L4.69 3.44L4.69 3.44Q5.76 3.44 6.33 3.85L6.33 3.85L6.33 3.85Q6.90 4.27 6.90 4.93L6.90 4.93L6.90 4.93Q6.90 5.25 6.75 5.63L6.75 5.63L6.75 5.63Q6.67 5.83 6.40 5.89L6.40 5.89L4.93 6.22L4.89 6.23L4.89 6.23Q4.81 6.23 4.80 6.13L4.80 6.13L4.80 6.13Q4.78 6.04 4.83 5.94L4.83 5.94L4.83 5.94Q5.09 5.44 5.09 5.02L5.09 5.02L5.09 5.02Q5.09 4.64 4.90 4.42L4.90 4.42L4.90 4.42Q4.70 4.20 4.43 4.20L4.43 4.20L4.43 4.20Q4.09 4.20 3.84 4.52L3.84 4.52L3.84 4.52Q3.60 4.82 3.50 5.35L3.50 5.35L3.50 5.35Q3.40 5.88 3.40 6.73L3.40 6.73L3.40 7.64L5.27 7.64L5.27 7.64Q5.48 7.64 5.48 7.85L5.48 7.85L5.48 8.46L5.48 8.46Q5.48 8.67 5.27 8.67L5.27 8.67L3.40 8.67L3.40 12.47L3.40 12.47Q3.40 13.06 3.67 13.43L3.67 13.43L3.67 13.43Q3.94 13.80 4.43 13.80L4.43 13.80L4.43 13.80Q4.64 13.80 4.64 14.01L4.64 14.01L4.64 14.43L4.64 14.43Q4.64 14.64 4.43 14.64L4.43 14.64L0.49 14.64L0.49 14.64Q0.28 14.64 0.28 14.43ZM5.56 14.43L5.56 14.43L5.56 14.01L5.56 14.01Q5.56 13.80 5.76 13.80L5.76 13.80L5.76 13.80Q6.26 13.79 6.53 13.43L6.53 13.43L6.53 13.43Q6.78 13.07 6.78 12.52L6.78 12.52L6.78 12.52Q6.78 12.50 6.78 12.47L6.78 12.47L6.78 7.23L6.78 7.23Q6.78 6.88 6.76 6.66L6.76 6.66L6.76 6.66Q6.73 6.43 6.66 6.18L6.66 6.18L6.66 6.18Q6.58 5.93 6.41 5.78L6.41 5.78L6.41 5.78Q6.23 5.64 5.95 5.61L5.95 5.61L5.95 5.61Q5.78 5.59 5.79 5.43L5.79 5.43L5.79 4.96L5.79 4.96Q5.79 4.87 5.83 4.84L5.83 4.84L5.83 4.84Q5.88 4.81 5.99 4.77L5.99 4.77L5.99 4.77Q7.55 4.25 8.62 3.47L8.62 3.47L8.62 3.47Q8.66 3.45 8.68 3.45L8.68 3.45L8.72 3.45L8.72 3.45Q8.74 3.45 8.75 3.47L8.75 3.47L8.75 12.47L8.75 12.47Q8.75 13.06 9.02 13.43L9.02 13.43L9.02 13.43Q9.28 13.80 9.78 13.80L9.78 13.80L9.78 13.80Q9.99 13.80 9.99 14.01L9.99 14.01L9.99 14.43L9.99 14.43Q9.99 14.64 9.78 14.64L9.78 14.64L5.76 14.64L5.76 14.64Q5.56 14.64 5.56 14.43ZM10.30 11.07L10.30 11.07L10.30 11.07Q10.30 10.01 10.86 9.11L10.86 9.11L10.86 9.11Q11.42 8.20 12.39 7.77L12.39 7.77L12.39 7.77Q13.06 7.47 13.81 7.47L13.81 7.47L13.81 7.47Q14.87 7.47 15.79 8.07L15.79 8.07L15.79 8.07Q16.71 8.66 17.17 9.69L17.17 9.69L17.17 9.69Q17.49 10.41 17.49 11.22L17.49 11.22L17.49 11.22Q17.49 12.28 16.93 13.17L16.93 13.17L16.93 13.17Q16.37 14.07 15.39 14.51L15.39 14.51L15.39 14.51Q14.70 14.81 13.97 14.81L13.97 14.81L13.97 14.81Q12.91 14.81 11.99 14.22L11.99 14.22L11.99 14.22Q11.07 13.62 10.62 12.60L10.62 12.60L10.62 12.60Q10.30 11.87 10.30 11.07ZM11.97 10.19L11.97 10.19L11.97 10.19Q11.97 10.96 12.36 11.83L12.36 11.83L12.36 11.83Q12.72 12.63 13.26 13.16L13.26 13.16L13.26 13.16Q13.80 13.69 14.41 13.69L14.41 13.69L14.41 13.69Q14.68 13.69 14.97 13.57L14.97 13.57L14.97 13.57Q15.82 13.20 15.82 12.09L15.82 12.09L15.82 12.09Q15.82 11.33 15.43 10.46L15.43 10.46L15.43 10.46Q15.07 9.65 14.52 9.12L14.52 9.12L14.52 9.12Q13.98 8.59 13.37 8.59L13.37 8.59L13.37 8.59Q13.10 8.59 12.81 8.72L12.81 8.72L12.81 8.72Q11.97 9.08 11.97 10.19ZM17.43 8.26L17.43 8.26L17.43 7.85L17.43 7.85Q17.43 7.64 17.64 7.64L17.64 7.64L20.88 7.64L20.88 7.64Q21.08 7.64 21.08 7.85L21.08 7.85L21.08 8.26L21.08 8.26Q21.08 8.48 20.88 8.48L20.88 8.48L20.85 8.48L20.85 8.48Q20.38 8.48 20.38 8.89L20.38 8.89L20.38 8.89Q20.38 9.23 20.66 9.81L20.66 9.81L21.78 12.43L23.00 9.45L23.00 9.45Q23.17 9.02 23.17 8.78L23.17 8.78L23.17 8.78Q23.17 8.48 22.88 8.48L22.88 8.48L22.58 8.48L22.58 8.48Q22.39 8.46 22.39 8.26L22.39 8.26L22.39 7.85L22.39 7.85Q22.39 7.64 22.58 7.64L22.58 7.64L25.94 7.64L25.94 7.64Q26.15 7.64 26.15 7.85L26.15 7.85L26.15 8.26L26.15 8.26Q26.15 8.48 25.94 8.48L25.94 8.48L25.78 8.48L25.78 8.48Q25.31 8.48 25.31 8.89L25.31 8.89L25.31 8.89Q25.31 9.23 25.59 9.81L25.59 9.81L26.71 12.43L27.92 9.45L27.92 9.45Q28.10 9.02 28.10 8.78L28.10 8.78L28.10 8.78Q28.10 8.48 27.81 8.48L27.81 8.48L27.53 8.48L27.53 8.48Q27.32 8.48 27.32 8.26L27.32 8.26L27.32 7.85L27.32 7.85Q27.32 7.64 27.53 7.64L27.53 7.64L30.10 7.64L30.10 7.64Q30.30 7.64 30.30 7.85L30.30 7.85L30.30 8.26L30.30 8.26Q30.30 8.48 30.10 8.48L30.10 8.48L29.90 8.48L29.90 8.48Q29.67 8.48 29.49 8.66L29.49 8.66L29.49 8.66Q29.31 8.84 29.08 9.35L29.08 9.35L26.86 14.49L26.86 14.49Q26.79 14.64 26.61 14.64L26.61 14.64L25.87 14.64L25.87 14.64Q25.70 14.64 25.63 14.49L25.63 14.49L23.78 10.21L21.93 14.49L21.93 14.49Q21.86 14.64 21.68 14.64L21.68 14.64L20.95 14.64L20.95 14.64Q20.77 14.64 20.70 14.49L20.70 14.49L18.48 9.36L18.48 9.36Q18.26 8.83 18.10 8.65L18.10 8.65L18.10 8.65Q17.94 8.48 17.68 8.48L17.68 8.48L17.64 8.48L17.64 8.48Q17.43 8.48 17.43 8.26ZM30.47 8.26L30.47 8.26L30.47 7.85L30.47 7.85Q30.47 7.64 30.69 7.64L30.69 7.64L33.92 7.64L33.92 7.64Q34.13 7.64 34.13 7.85L34.13 7.85L34.13 8.26L34.13 8.26Q34.13 8.48 33.92 8.48L33.92 8.48L33.89 8.48L33.89 8.48Q33.45 8.48 33.45 8.84L33.45 8.84L33.45 8.84Q33.45 9.10 33.76 9.80L33.76 9.80L34.70 11.85L35.71 9.77L35.71 9.77Q36.06 9.06 36.06 8.78L36.06 8.78L36.06 8.78Q36.06 8.48 35.74 8.48L35.74 8.48L35.49 8.48L35.49 8.48Q35.28 8.48 35.28 8.26L35.28 8.26L35.28 7.85L35.28 7.85Q35.28 7.64 35.49 7.64L35.49 7.64L38.20 7.64L38.20 7.64Q38.40 7.64 38.40 7.85L38.40 7.85L38.40 8.26L38.40 8.26Q38.40 8.48 38.20 8.48L38.20 8.48L37.99 8.48L37.99 8.48Q37.76 8.48 37.59 8.66L37.59 8.66L37.59 8.66Q37.42 8.84 37.18 9.35L37.18 9.35L33.12 17.53L33.12 17.53Q33.03 17.71 32.84 17.62L32.84 17.62L32.12 17.26L32.12 17.26Q31.92 17.17 32.02 16.98L32.02 16.98L33.58 13.62L31.53 9.36L31.53 9.36Q31.27 8.82 31.12 8.65L31.12 8.65L31.12 8.65Q30.97 8.48 30.72 8.48L30.72 8.48L30.69 8.48L30.69 8.48Q30.47 8.48 30.47 8.26Z"></path></g><defs data-v-fde0c5aa=""><linearGradient data-v-fde0c5aa="" gradientTransform="rotate(25)" id="807e1db2-cdb1-4268-a589-8efe33c699c7" x1="0%" y1="0%" x2="100%" y2="0%"><stop data-v-fde0c5aa="" offset="0%" stop-color="#DB2428" stop-opacity="1"></stop><stop data-v-fde0c5aa="" offset="100%" stop-color="#A0998B" stop-opacity="1"></stop></linearGradient></defs><g data-v-fde0c5aa="" id="518ab276-866a-4d2e-8459-cb5148da820d" stroke="none" fill="url(#807e1db2-cdb1-4268-a589-8efe33c699c7)" transform="matrix(0.9286874320982785,0,0,0.9286874320982785,30.711788324335753,103.56600126019926)"><switch><g><path clip-rule="evenodd" d="M89.979 45.533l-.036-.001c-.041-.498-.036-1.004-.133-1.49-.344-1.716-.601-3.463-1.117-5.128-.783-2.523-1.478-5.092-2.906-7.373-.944-1.509-1.864-3.018-3.247-4.191-.484-.413-.992-.905-1.229-1.469-.242-.574-.637-.92-1.034-1.325-.846-.858-1.569-1.83-2.561-2.552-.638-.467-1.174-1.07-1.79-1.568-.837-.678-1.705-1.318-2.566-1.967-.22-.167-.529-.253-.683-.46-.589-.796-1.424-1.232-2.273-1.656-1.429-.714-2.826-1.496-4.021-2.555-1.17-1.039-2.592-1.503-4.006-2.001-.657-.232-1.363-.317-2.039-.505-1.643-.457-3.258-1.044-5.012-.842-.144.017-.297-.073-.447-.098-.673-.111-1.348-.303-2.022-.303-1.237.001-2.475.105-3.711.188-.619.042-1.308-.027-1.84.222-1.891.885-3.958 1.099-5.914 1.723-.976.311-1.951.647-2.879 1.077-1.07.495-2.021 1.232-3.168 1.598-.405.129-.765.401-1.142.612-1.092.612-2.143 1.31-3.28 1.814-1.04.46-1.799 1.201-2.508 2.014a19.084 19.084 0 0 1-2.657 2.505c-.809.635-1.571 1.33-2.354 2-.686.585-1.292 1.326-2.074 1.721-1.105.559-1.69 1.624-2.642 2.324-.702.517-1.194 1.322-1.77 2.009-.529.631-1.081 1.244-1.331 2.065-.132.441-.289.907-.562 1.267-1.002 1.321-1.559 2.817-1.9 4.415-.024.117-.05.267-.131.337-.366.325-.387.755-.453 1.193-.097.634-.253 1.257-.396 1.882-.326 1.429-.678 2.851-.983 4.284-.142.665-.101 1.382-.315 2.017-.544 1.609-.917 3.231-.834 4.94.055 1.09.084 2.181.135 3.272.029.651.077 1.304.117 1.954.044.702-.087 1.476.166 2.091.56 1.367.334 2.898 1.005 4.222.051.099-.01.248.013.368.142.758.168 1.568.472 2.255.372.846.491 1.816 1.164 2.532.102.108.038.36.075.541.062.299.131.599.225.889.065.205.271.405.253.591-.061.591.317.981.659 1.292.804.737 1.154 1.746 1.734 2.613.446.666.875 1.344 1.278 2.037.372.64.714 1.3 1.044 1.963.363.729.671 1.488 1.062 2.202.138.253.438.427.687.605.201.146.459.217.649.373.995.803 1.975 1.623 2.964 2.433.163.135.338.28.53.352 1.049.381 2.104.75 3.162 1.102.319.106.697.076.986.227 1.844.961 3.741 1.75 5.81 2.081.92.148 1.823.439 2.745.505 1.463.105 2.916.206 4.34.594 1.767.48 3.574.688 5.402.566 1.173-.08 2.34-.244 3.509-.378.667-.077 1.351-.097 1.993-.268 1.138-.306 2.25-.708 3.373-1.068.471-.152.935-.338 1.448-.159.104.036.25-.003.366-.042 1.324-.437 2.639-.896 3.763-1.767.169-.13.377-.233.585-.288 1.615-.439 2.979-1.367 4.35-2.271 1.112-.734 2.166-1.556 3.257-2.32 1.141-.799 2.294-1.577 3.44-2.365.052-.035.098-.077.146-.118.553-.478 1.049-1.059 1.673-1.413 1.129-.642 1.871-1.575 2.494-2.67.241-.423.621-.771.954-1.138.909-1.008 1.88-1.967 2.725-3.024.612-.767 1.42-1.285 2.087-1.969.343-.351.782-.678.958-1.106.479-1.173.913-2.376 1.23-3.602.251-.973.746-1.768 1.364-2.511.678-.813 1.405-1.58 1.61-2.685.061-.325.252-.636.419-.933.496-.88.879-1.801.987-2.812.057-.521.018-1.051.082-1.569.138-1.116.396-2.225.455-3.345.081-1.516.021-3.04.021-4.562zM73.361 24.3c.307.263.635.505.917.795.261.268.119.545-.145.704-.278.168-.475-.012-.571-.278-.132-.365-.241-.736-.359-1.105l.158-.116zm-5.638.816c.181-.547.398-1.083.632-1.699.833.63.78 1.721-.039 2.136-.129.065-.358.033-.491-.042-.087-.049-.14-.281-.102-.395zm-4.898-2.243c.204.059.42.101.617.186.5.218.657.526.479 1.046a3.67 3.67 0 0 1-.479.91c-1.303 1.841-2.622 3.669-3.929 5.508-1.18 1.659-2.381 3.303-3.516 4.994-2.039 3.037-4.376 5.8-7.163 8.179-1.679 1.433-3.074 3.121-4.353 4.914-.489.687-1.054 1.322-1.611 1.958-1.611 1.835-3.274 3.626-4.843 5.497-1.587 1.893-3.087 3.859-4.623 5.796-.876 1.104-1.747 2.209-2.777 3.228.291-.59.555-1.195.879-1.768.613-1.089 1.285-2.143 1.886-3.239 1.4-2.558 2.994-4.987 4.708-7.345 1.73-2.385 3.461-4.768 5.474-6.925 2.997-3.213 5.624-6.729 8.369-10.149 1.465-1.826 2.822-3.736 4.267-5.579.772-.981 1.632-1.895 2.439-2.849.463-.546.858-1.156 1.36-1.66.674-.678 1.429-1.274 2.134-1.921.226-.204.405-.461.682-.781zm-3.643-4.472c-.107-.134-.136-.348-.156-.529-.073-.634-.447-1.073-.929-1.432-.457-.341-.947-.447-1.481-.136-.318.184-.66.327-1.021.503-.195-.513-.374-.988-.604-1.599.66.14 1.214-.067 1.667.439.135.148.521.128.778.092 1.035-.148 2.396.201 3.187.863.545.458 1.083.925 1.632 1.394-.074.66-.494 1.068-.911 1.488-2.449 2.462-4.926 4.9-7.324 7.413-.791.828-1.348 1.877-2.062 2.786-1.643 2.09-3.317 4.155-4.979 6.231-1.113 1.393-2.186 2.819-3.348 4.171-1.734 2.015-3.53 3.976-5.3 5.959 1.418-2.812 3.001-5.526 4.957-8.018 1.567-1.995 2.984-4.108 4.571-6.084 1.685-2.101 3.493-4.1 5.242-6.149.793-.928 1.619-1.833 2.344-2.814.952-1.289 2.256-1.899 3.86-2.207.021-.791.503-1.579-.123-2.371zm-9.54 5.397c.773-1.284 1.682-2.456 2.853-3.416l.214.204-2.868 3.377-.199-.165zM28.16 29.346c.108-.111.223-.237.274-.377.491-1.37 1.588-2.177 2.687-3.01.351-.266.643-.694.8-1.111.282-.741-.014-1.213-1.019-1.798.109-.156.155-.281.247-.343.848-.572 1.588-1.268 2.356-1.937.834-.726 1.843-1.282 2.842-1.78 1.614-.801 3.395-1.234 4.954-2.175.15-.09.339-.119.646-.222-.345.959-1.056 1.499-1.52 2.202a94.182 94.182 0 0 1-1.416 2.103c-.5.719-1.021 1.423-1.604 2.229-.265-.225-.525-.424-.763-.648-.179-.171-.316-.386-.494-.561-.806-.786-1.477-.587-1.923.435-.367.841-.787 1.705-1.375 2.396-2.289 2.702-4.394 5.53-6.251 8.544a1.316 1.316 0 0 1-.399.398c.385-1.571.778-3.131 1.958-4.345zm-4.406 8.418c-.688 2.006-1.58 3.873-3.04 5.611-.114-.973.16-1.675.589-2.318.329-.493.729-.938 1.083-1.415.462-.621.912-1.252 1.368-1.878zm-2.76-3.814c.299-.204.561-.46.86-.711-.068.605-.711 1.581-1.477 2.215-.112-.695.102-1.154.617-1.504zm-2 28.05c-.221.211-.461.399-.759.655-.609-.808-1.043-1.623-1.08-2.577-.012-.296.221-.636.418-.899.615-.82 1.307-1.588 1.898-2.424.764-1.076 1.562-2.102 2.658-2.867.224-.154.422-.386.553-.624.741-1.341 1.494-2.677 2.17-4.052a20.888 20.888 0 0 1 1.773-2.957c.742-1.039 1.43-2.139 1.975-3.291.62-1.309 1.503-2.443 2.201-3.695 1.271-2.282 2.979-4.238 4.572-6.287 1.188-1.525 2.164-3.22 3.222-4.846.966-1.49 1.92-2.986 2.873-4.483.475-.743.92-1.521 1.899-1.286.467-.817.866-1.555 1.303-2.272.341-.56.826-.912 1.521-.969.208-.017.509-.183.582-.358.347-.835.52-1.701.165-2.591-.081-.2-.148-.406-.217-.598.394-.628 1.043-.495 1.553-.531 1.477-.103 2.962-.091 4.502-.127-.211 1.523-.466 2.981 1.262 3.832l-1.129 1.521c-.109-.689-.167-1.166-.263-1.635a2.663 2.663 0 0 0-.789-1.452c-.65-.619-1.241-.458-1.667.325-.58 1.069-1.254 2.089-1.917 3.11-1.921 2.955-4.271 5.561-6.722 8.071-2.806 2.871-5.208 6.025-6.897 9.665-1.021 2.198-2.141 4.32-3.558 6.283-.824 1.142-1.744 2.221-2.493 3.411-1.233 1.958-2.327 4.005-3.542 5.976-1.758 2.854-3.623 5.636-6.067 7.972zm3.729 7.834c-.372-.101-.55-.377-.341-.812.174-.361.336-.768.615-1.036 1.027-.98 1.557-2.247 2.181-3.475.89-1.755 1.793-3.511 2.816-5.191.59-.969 1.443-1.774 2.147-2.676 1.116-1.426 2.206-2.872 3.312-4.305.117-.154.267-.285.401-.427l.119.084c-.062.126-.112.259-.188.376-2.277 3.453-4.184 7.119-6.184 10.733-.925 1.668-2.023 3.24-3.026 4.866-.461.75-.913 1.494-1.852 1.863zm4.105 7.787c-.668.521-.997.612-1.497.122-.019-.018-.013-.061-.022-.105.202-.343.504-.474.915-.51.698-.063 1.143-.442 1.437-1.125.343-.794.846-1.518 1.278-2.271.254-.439.507-.879.763-1.315 1.17-2.001 2.619-3.794 4.135-5.538a340.975 340.975 0 0 0 4.139-4.857c1.501-1.799 2.941-3.648 4.475-5.417.73-.845 1.614-1.557 2.433-2.332-.038.6-.444 1.062-.791 1.542-1.042 1.44-2.103 2.868-3.146 4.309-2.493 3.447-4.939 6.93-7.489 10.336-1.101 1.472-2.304 2.903-3.657 4.139-1.052.957-1.848 2.142-2.973 3.022zm10.316 6.236c-.179-.892-.08-1.064.972-1.673l.161 2.02-1.133-.347zm.935-12.967c-.859.772-1.532 1.535-1.835 2.658-.133.498-.475.94-.722 1.407-.417.785-1.093 1.277-1.892 1.599-1.332.538-2.073 1.647-2.731 2.818-.154.274-.097.667-.139 1.041l-.767.298c-.084-.253-.276-.521-.21-.686.252-.628.488-1.304.91-1.812.809-.972 1.75-1.832 2.618-2.755.421-.447.823-.913 1.194-1.402a295.79 295.79 0 0 0 2.896-3.878c.706-.956 1.395-1.925 2.098-2.882.681-.928 1.301-1.914 2.081-2.747.552-.589 1.019-1.258 1.872-1.629.936-.408 1.702-1.221 2.516-1.889 1.312-1.08 2.344-2.392 3.134-3.896.1-.19.236-.368.384-.526.952-1.021 1.478-2.307 2.198-3.472.784-1.269 1.486-2.626 2.469-3.728.91-1.021 1.712-2.139 2.672-3.117.104-.108.203-.24.255-.379.365-.991 1.102-1.702 1.773-2.475.568-.654 1.029-1.403 1.567-2.086a418.66 418.66 0 0 1 3.279-4.088c.968-1.192 1.979-2.35 2.917-3.564 1.185-1.531 2.683-2.708 4.182-3.894.095-.075.206-.145.322-.181.174-.055.359-.08.505-.111.391.326.19.611.008.854-.507.674-.983 1.385-1.569 1.983a166.636 166.636 0 0 1-4.502 4.396c-1.271 1.196-2.239 2.621-3.147 4.08-1.573 2.525-3.2 5.009-5.097 7.308a146.395 146.395 0 0 0-3.058 3.792c-.872 1.134-1.604 2.382-2.543 3.453-1.009 1.151-1.735 2.495-2.724 3.648a146.609 146.609 0 0 1-3 3.357c-1.345 1.479-2.704 2.944-4.062 4.412-1.269 1.381-2.462 2.846-3.852 4.093zm4.2 6.606l-.177-.109c.14-.289.233-.612.427-.858.508-.645 1.016-1.274 1.472-1.965.401-.608.886-1.195 1.238-1.839.791-1.448 2.015-2.543 2.981-3.844.912-1.227 1.799-2.472 2.7-3.706.259-.354.496-.732.806-1.038a87.441 87.441 0 0 1 3.019-2.885c1.242-1.115 2.118-2.493 2.976-3.897.466-.764.997-1.489 1.489-2.236.718-1.088 1.393-2.205 2.147-3.265.612-.859 1.322-1.646 1.977-2.473.463-.584.948-1.156 1.352-1.778.567-.876 1.257-1.617 2.024-2.322.779-.712 1.439-1.558 2.153-2.344.947-1.041 1.881-2.094 2.849-3.115.491-.518 1-1.041 1.584-1.443.57-.393.89-.93.963-1.532.129-1.053.131-2.131-.878-2.948.268-.375.57-.734.799-1.135.218-.385.569-.549.933-.521 1.47.111 2.097-.821 2.566-1.978.08-.196.15-.397.242-.586.02-.04.112-.043.213-.078.833.704 1.485 1.549 1.808 2.573-.307.757-.855 1.146-1.536 1.525-.583.326-.937 1.058-1.407 1.597-1.063 1.22-2.139 2.43-3.207 3.645-.507.579-.93 1.267-1.531 1.72-1.146.863-1.658 2.109-2.294 3.298-1.704 3.191-3.865 6.053-6.234 8.779-1.411 1.622-2.701 3.349-4.08 5-1.163 1.393-2.394 2.731-3.562 4.122-1.046 1.246-2.021 2.552-3.079 3.789-1.241 1.452-2.546 2.848-3.804 4.284-.512.585-.947 1.235-1.462 1.816-.701.792-1.456 1.534-2.166 2.318-.584.646-1.218 1.271-1.676 2.001-.425.677-1.031 1.021-1.625 1.428zm6.283 6.613c-.049.031-.198-.004-.23-.054-.157-.254-.069-.442.242-.592.229.273.252.483-.012.646zm1.564-6.162c-.887.84-1.771 1.682-2.655 2.522-.563.539-1.114 1.09-1.69 1.614-.601.544-1.323.537-2.19.398.076-.238.092-.404.175-.524.602-.868 1.246-1.711 1.823-2.594.967-1.476 2.303-2.667 3.239-4.146.984-1.553 2.277-2.854 3.312-4.36.455-.659 1.077-1.204 1.62-1.806 1.432-1.589 2.886-3.161 4.284-4.779.633-.73 1.146-1.562 1.731-2.337.148-.196.351-.356.544-.512 1.461-1.181 2.658-2.573 3.7-4.146.751-1.132 1.738-2.112 2.634-3.148.917-1.06 1.891-2.072 2.764-3.166.479-.598.802-1.321 1.193-1.987.284-.484.512-1.014.863-1.443.961-1.176 1.621-2.582 2.873-3.548.6-.461 1.057-1.15 1.467-1.805a13.315 13.315 0 0 1 3.285-3.579c.785-.591 1.352-1.291 1.915-2.041.505-.673 1.035-.633 1.378.116.167.36.276.746.405 1.101-.875.586-1.721 1.062-2.451 1.672-.534.447-.98 1.033-1.359 1.625-1.033 1.617-2.082 3.216-3.293 4.709-.884 1.089-1.667 2.259-2.548 3.35-.941 1.166-1.989 2.249-2.907 3.432-1.056 1.359-1.969 2.829-3.037 4.177-1.556 1.964-3.182 3.871-4.8 5.783-2.125 2.51-4.327 4.955-6.387 7.517-1.111 1.381-2.027 2.926-2.973 4.434-.813 1.297-1.812 2.423-2.915 3.471zm5.797 5.154c-.292.104-.651.017-1.074.017.269-.566.447-1.043.949-1.378.346-.229.564-.647.852-.971.237-.266.491-.514.825-.861l.754 2.225c-.762.325-1.52.687-2.306.968zm4.146-12.878c.024-.08.025-.179.076-.237a490.938 490.938 0 0 1 2.966-3.483c.666-.773 1.315-1.564 2.024-2.298 2.433-2.518 4.318-5.478 6.594-8.123 1.047-1.218 1.94-2.543 3.164-3.637.761-.682 1.711-1.318 2.059-2.402.686-.462.848-1.274 1.284-1.898.382-.545.932-.973 1.479-1.402-.057.806-.463 1.451-.905 2.047-.653.877-1.379 1.701-2.08 2.541-.319.383-.653.751-.978 1.129-1.111 1.294-2.222 2.587-3.326 3.886-.091.109-.125.269-.191.399-.273.549-.547 1.046-1.098 1.441-.587.421-.996 1.097-1.46 1.68-.656.824-1.234 1.716-1.95 2.483-.768.826-1.7 1.495-2.475 2.317-.777.824-1.424 1.771-2.17 2.627-.549.63-.988 1.379-1.803 1.754-.205.093-.331.356-.491.543-.203.24-.404.482-.606.725-.036-.031-.076-.061-.113-.092zm18.622-4.531a8.79 8.79 0 0 1-.849.96c-.303.295-.726.496-.959.832-.669.973-1.642 1.664-2.348 2.576-.78 1.01-1.876 1.724-2.525 2.848-.163.282-.461.496-.724.707-1.012.814-2.021 1.635-3.062 2.411-.394.292-.896.435-1.305.711-.48.323-.904.729-1.369 1.076-.374.279-.77.529-1.16.784-.462.302-.948.533-1.358.951-.383.389-.995.553-1.507.816l-.178-.18c.146-.246.247-.542.45-.729.545-.505 1.154-.941 1.7-1.448.673-.624 1.299-1.299 1.964-1.934.331-.317.705-.591 1.054-.891.556-.476 1.136-.928 1.652-1.443.897-.896 1.768-1.795 2.883-2.458a9.966 9.966 0 0 0 2.904-2.631c.818-1.089 1.943-1.946 2.924-2.914.477-.473.924-.975 1.402-1.446.235-.232.51-.424.88-.726l.363.875c-.32.491-.554.887-.832 1.253zm4.564-12.95c-1.252.045-1.663 1.223-2.397 1.979-.82.846-1.479 1.85-2.228 2.77-.334.41-.751.754-1.067 1.177-.739.988-1.437 2.01-2.162 3.01-.179.244-.409.451-.61.682-.876 1.009-1.819 1.97-2.606 3.044-.932 1.276-2.174 2.215-3.282 3.295-.91.891-2.013 1.582-2.957 2.441a63.86 63.86 0 0 0-3.312 3.271c-.707.746-1.485 1.38-2.44 1.871.189-.352.321-.758.581-1.045.873-.965 1.793-1.885 2.69-2.825.446-.466.876-.947 1.332-1.402.278-.275.6-.51.894-.771a1.48 1.48 0 0 0 .306-.346c.467-.816 1.152-1.441 1.78-2.123.485-.527.871-1.146 1.335-1.694.797-.944 1.587-1.891 2.609-2.631.534-.389.917-.992 1.349-1.516 1.106-1.34 2.238-2.662 3.292-4.043.828-1.086 1.557-2.248 2.327-3.378.513-.752 1.018-1.505 1.53-2.257.105-.154.202-.324.341-.447.577-.507 1.263-.926 1.729-1.518.462-.583.876-1.178 1.654-1.65.052 1.457-.307 2.739-.688 4.106z"></path></g></switch></g><!----></svg>