<svg data-v-fde0c5aa="" xmlns="http://www.w3.org/2000/svg" viewBox="0 0 300 300" class="font"><!----><defs data-v-fde0c5aa=""><!----></defs><rect data-v-fde0c5aa="" fill="transparent" x="0" y="0" width="300px" height="300px" class="logo-background-square"></rect><defs data-v-fde0c5aa=""><linearGradient data-v-fde0c5aa="" gradientTransform="rotate(25)" id="f4431878-92c8-4165-8f94-98eac5119c82" x1="0%" y1="0%" x2="100%" y2="0%"><stop data-v-fde0c5aa="" offset="0%" stop-color="#DB2428" stop-opacity="1"></stop><stop data-v-fde0c5aa="" offset="100%" stop-color="#A0998B" stop-opacity="1"></stop></linearGradient></defs><g data-v-fde0c5aa="" id="57312be7-2a22-4c98-b0a8-4f38a2b4d69d" fill="url(#f4431878-92c8-4165-8f94-98eac5119c82)" transform="matrix(5.771248272528678,0,0,5.771248272528678,38.38405047681211,89.14218927781941)"><path d="M0.28 14.43L0.28 14.43L0.28 14.01L0.28 14.01Q0.28 13.80 0.49 13.80L0.49 13.80L0.49 13.80Q0.99 13.80 1.26 13.43L1.26 13.43L1.26 13.43Q1.50 13.08 1.50 12.53L1.50 12.53L1.50 12.53Q1.50 12.50 1.50 12.47L1.50 12.47L1.50 10.08L1.50 10.08Q1.50 9.86 1.50 9.74L1.50 9.74L1.50 9.74Q1.50 9.63 1.48 9.43L1.48 9.43L1.48 9.43Q1.46 9.24 1.43 9.13L1.43 9.13L1.43 9.13Q1.39 9.02 1.32 8.88L1.32 8.88L1.32 8.88Q1.24 8.74 1.14 8.66L1.14 8.66L1.14 8.66Q1.03 8.59 0.87 8.54L0.87 8.54L0.87 8.54Q0.70 8.48 0.49 8.48L0.49 8.48L0.49 8.48Q0.28 8.48 0.28 8.27L0.28 8.27L0.28 7.85L0.28 7.85Q0.28 7.64 0.49 7.64L0.49 7.64L1.53 7.64L1.52 7.53L1.52 7.53Q1.52 6.99 1.61 6.46L1.61 6.46L1.61 6.46Q1.70 5.93 1.93 5.37L1.93 5.37L1.93 5.37Q2.17 4.82 2.51 4.40L2.51 4.40L2.51 4.40Q2.86 3.98 3.42 3.71L3.42 3.71L3.42 3.71Q3.99 3.44 4.69 3.44L4.69 3.44L4.69 3.44Q5.76 3.44 6.33 3.85L6.33 3.85L6.33 3.85Q6.90 4.27 6.90 4.93L6.90 4.93L6.90 4.93Q6.90 5.25 6.75 5.63L6.75 5.63L6.75 5.63Q6.67 5.83 6.40 5.89L6.40 5.89L4.93 6.22L4.89 6.23L4.89 6.23Q4.81 6.23 4.80 6.13L4.80 6.13L4.80 6.13Q4.78 6.04 4.83 5.94L4.83 5.94L4.83 5.94Q5.09 5.44 5.09 5.02L5.09 5.02L5.09 5.02Q5.09 4.64 4.90 4.42L4.90 4.42L4.90 4.42Q4.70 4.20 4.43 4.20L4.43 4.20L4.43 4.20Q4.09 4.20 3.84 4.52L3.84 4.52L3.84 4.52Q3.60 4.82 3.50 5.35L3.50 5.35L3.50 5.35Q3.40 5.88 3.40 6.73L3.40 6.73L3.40 7.64L5.27 7.64L5.27 7.64Q5.48 7.64 5.48 7.85L5.48 7.85L5.48 8.46L5.48 8.46Q5.48 8.67 5.27 8.67L5.27 8.67L3.40 8.67L3.40 12.47L3.40 12.47Q3.40 13.06 3.67 13.43L3.67 13.43L3.67 13.43Q3.94 13.80 4.43 13.80L4.43 13.80L4.43 13.80Q4.64 13.80 4.64 14.01L4.64 14.01L4.64 14.43L4.64 14.43Q4.64 14.64 4.43 14.64L4.43 14.64L0.49 14.64L0.49 14.64Q0.28 14.64 0.28 14.43ZM5.56 14.43L5.56 14.43L5.56 14.01L5.56 14.01Q5.56 13.80 5.76 13.80L5.76 13.80L5.76 13.80Q6.26 13.79 6.53 13.43L6.53 13.43L6.53 13.43Q6.78 13.07 6.78 12.52L6.78 12.52L6.78 12.52Q6.78 12.50 6.78 12.47L6.78 12.47L6.78 7.23L6.78 7.23Q6.78 6.88 6.76 6.66L6.76 6.66L6.76 6.66Q6.73 6.43 6.66 6.18L6.66 6.18L6.66 6.18Q6.58 5.93 6.41 5.78L6.41 5.78L6.41 5.78Q6.23 5.64 5.95 5.61L5.95 5.61L5.95 5.61Q5.78 5.59 5.79 5.43L5.79 5.43L5.79 4.96L5.79 4.96Q5.79 4.87 5.83 4.84L5.83 4.84L5.83 4.84Q5.88 4.81 5.99 4.77L5.99 4.77L5.99 4.77Q7.55 4.25 8.62 3.47L8.62 3.47L8.62 3.47Q8.66 3.45 8.68 3.45L8.68 3.45L8.72 3.45L8.72 3.45Q8.74 3.45 8.75 3.47L8.75 3.47L8.75 12.47L8.75 12.47Q8.75 13.06 9.02 13.43L9.02 13.43L9.02 13.43Q9.28 13.80 9.78 13.80L9.78 13.80L9.78 13.80Q9.99 13.80 9.99 14.01L9.99 14.01L9.99 14.43L9.99 14.43Q9.99 14.64 9.78 14.64L9.78 14.64L5.76 14.64L5.76 14.64Q5.56 14.64 5.56 14.43ZM10.30 11.07L10.30 11.07L10.30 11.07Q10.30 10.01 10.86 9.11L10.86 9.11L10.86 9.11Q11.42 8.20 12.39 7.77L12.39 7.77L12.39 7.77Q13.06 7.47 13.81 7.47L13.81 7.47L13.81 7.47Q14.87 7.47 15.79 8.07L15.79 8.07L15.79 8.07Q16.71 8.66 17.17 9.69L17.17 9.69L17.17 9.69Q17.49 10.41 17.49 11.22L17.49 11.22L17.49 11.22Q17.49 12.28 16.93 13.17L16.93 13.17L16.93 13.17Q16.37 14.07 15.39 14.51L15.39 14.51L15.39 14.51Q14.70 14.81 13.97 14.81L13.97 14.81L13.97 14.81Q12.91 14.81 11.99 14.22L11.99 14.22L11.99 14.22Q11.07 13.62 10.62 12.60L10.62 12.60L10.62 12.60Q10.30 11.87 10.30 11.07ZM11.97 10.19L11.97 10.19L11.97 10.19Q11.97 10.96 12.36 11.83L12.36 11.83L12.36 11.83Q12.72 12.63 13.26 13.16L13.26 13.16L13.26 13.16Q13.80 13.69 14.41 13.69L14.41 13.69L14.41 13.69Q14.68 13.69 14.97 13.57L14.97 13.57L14.97 13.57Q15.82 13.20 15.82 12.09L15.82 12.09L15.82 12.09Q15.82 11.33 15.43 10.46L15.43 10.46L15.43 10.46Q15.07 9.65 14.52 9.12L14.52 9.12L14.52 9.12Q13.98 8.59 13.37 8.59L13.37 8.59L13.37 8.59Q13.10 8.59 12.81 8.72L12.81 8.72L12.81 8.72Q11.97 9.08 11.97 10.19ZM17.43 8.26L17.43 8.26L17.43 7.85L17.43 7.85Q17.43 7.64 17.64 7.64L17.64 7.64L20.88 7.64L20.88 7.64Q21.08 7.64 21.08 7.85L21.08 7.85L21.08 8.26L21.08 8.26Q21.08 8.48 20.88 8.48L20.88 8.48L20.85 8.48L20.85 8.48Q20.38 8.48 20.38 8.89L20.38 8.89L20.38 8.89Q20.38 9.23 20.66 9.81L20.66 9.81L21.78 12.43L23.00 9.45L23.00 9.45Q23.17 9.02 23.17 8.78L23.17 8.78L23.17 8.78Q23.17 8.48 22.88 8.48L22.88 8.48L22.58 8.48L22.58 8.48Q22.39 8.46 22.39 8.26L22.39 8.26L22.39 7.85L22.39 7.85Q22.39 7.64 22.58 7.64L22.58 7.64L25.94 7.64L25.94 7.64Q26.15 7.64 26.15 7.85L26.15 7.85L26.15 8.26L26.15 8.26Q26.15 8.48 25.94 8.48L25.94 8.48L25.78 8.48L25.78 8.48Q25.31 8.48 25.31 8.89L25.31 8.89L25.31 8.89Q25.31 9.23 25.59 9.81L25.59 9.81L26.71 12.43L27.92 9.45L27.92 9.45Q28.10 9.02 28.10 8.78L28.10 8.78L28.10 8.78Q28.10 8.48 27.81 8.48L27.81 8.48L27.53 8.48L27.53 8.48Q27.32 8.48 27.32 8.26L27.32 8.26L27.32 7.85L27.32 7.85Q27.32 7.64 27.53 7.64L27.53 7.64L30.10 7.64L30.10 7.64Q30.30 7.64 30.30 7.85L30.30 7.85L30.30 8.26L30.30 8.26Q30.30 8.48 30.10 8.48L30.10 8.48L29.90 8.48L29.90 8.48Q29.67 8.48 29.49 8.66L29.49 8.66L29.49 8.66Q29.31 8.84 29.08 9.35L29.08 9.35L26.86 14.49L26.86 14.49Q26.79 14.64 26.61 14.64L26.61 14.64L25.87 14.64L25.87 14.64Q25.70 14.64 25.63 14.49L25.63 14.49L23.78 10.21L21.93 14.49L21.93 14.49Q21.86 14.64 21.68 14.64L21.68 14.64L20.95 14.64L20.95 14.64Q20.77 14.64 20.70 14.49L20.70 14.49L18.48 9.36L18.48 9.36Q18.26 8.83 18.10 8.65L18.10 8.65L18.10 8.65Q17.94 8.48 17.68 8.48L17.68 8.48L17.64 8.48L17.64 8.48Q17.43 8.48 17.43 8.26ZM30.47 8.26L30.47 8.26L30.47 7.85L30.47 7.85Q30.47 7.64 30.69 7.64L30.69 7.64L33.92 7.64L33.92 7.64Q34.13 7.64 34.13 7.85L34.13 7.85L34.13 8.26L34.13 8.26Q34.13 8.48 33.92 8.48L33.92 8.48L33.89 8.48L33.89 8.48Q33.45 8.48 33.45 8.84L33.45 8.84L33.45 8.84Q33.45 9.10 33.76 9.80L33.76 9.80L34.70 11.85L35.71 9.77L35.71 9.77Q36.06 9.06 36.06 8.78L36.06 8.78L36.06 8.78Q36.06 8.48 35.74 8.48L35.74 8.48L35.49 8.48L35.49 8.48Q35.28 8.48 35.28 8.26L35.28 8.26L35.28 7.85L35.28 7.85Q35.28 7.64 35.49 7.64L35.49 7.64L38.20 7.64L38.20 7.64Q38.40 7.64 38.40 7.85L38.40 7.85L38.40 8.26L38.40 8.26Q38.40 8.48 38.20 8.48L38.20 8.48L37.99 8.48L37.99 8.48Q37.76 8.48 37.59 8.66L37.59 8.66L37.59 8.66Q37.42 8.84 37.18 9.35L37.18 9.35L33.12 17.53L33.12 17.53Q33.03 17.71 32.84 17.62L32.84 17.62L32.12 17.26L32.12 17.26Q31.92 17.17 32.02 16.98L32.02 16.98L33.58 13.62L31.53 9.36L31.53 9.36Q31.27 8.82 31.12 8.65L31.12 8.65L31.12 8.65Q30.97 8.48 30.72 8.48L30.72 8.48L30.69 8.48L30.69 8.48Q30.47 8.48 30.47 8.26Z"></path></g><!----><!----></svg>